<?xml version="1.0" encoding="utf-8"?>
<!-- Generator: Adobe Illustrator 19.0.0, SVG Export Plug-In . SVG Version: 6.00 Build 0)  -->
<svg version="1.1" id="Layer_1" xmlns="http://www.w3.org/2000/svg" xmlns:xlink="http://www.w3.org/1999/xlink" x="0px" y="0px"
	 viewBox="0 0 115.8 81.1" style="enable-background:new 0 0 115.8 81.1;" xml:space="preserve">
<style type="text/css">
	.st0{fill:#F2F0F0;}
</style>
<polygon id="XMLID_396_" class="st0" points="13.2,69.3 28.8,69.3 28.8,55.7 18.2,15.1 13.2,15.1 "/>
<polygon id="XMLID_397_" class="st0" points="35.3,69.3 51.5,69.3 36.8,15.1 21,15.1 "/>
<polygon id="XMLID_398_" class="st0" points="52.4,63.2 44.2,36.5 49.2,15.1 64.5,15.1 "/>
<polygon id="XMLID_399_" class="st0" points="58.4,69.3 74.1,69.3 74.1,15.1 66.2,15.1 "/>
<polygon id="XMLID_401_" class="st0" points="100.4,69.3 87.5,69.3 83,39.1 103.7,39.1 "/>
<path id="XMLID_440_" class="st0" d="M92.2,35c0,0,0.1,0.7,1.1,0.7c0,0,1.4,0.1,1.4-0.7c0,0,1.7,0,1.7-1.2v-0.3h-6.1
	C90.4,33.5,89.8,35,92.2,35z"/>
<path id="XMLID_438_" class="st0" d="M96.3,32.7h-5.7c-0.3,0-0.5-0.2-0.5-0.5l0,0c0-0.3,0.2-0.5,0.5-0.5h5.7c0.3,0,0.5,0.2,0.5,0.5
	l0,0C96.8,32.4,96.6,32.7,96.3,32.7z"/>
<path id="XMLID_437_" class="st0" d="M88.2,28.4L88.2,28.4c-0.4-0.3-1.1-0.2-1.4,0.1l-1.2,1.2c-0.3,0.3-0.3,0.8,0.2,1.1l0,0
	c0.4,0.3,1.1,0.2,1.4-0.1l1.2-1.2C88.7,29.2,88.7,28.7,88.2,28.4z"/>
<path id="XMLID_436_" class="st0" d="M84.9,25.1L84.9,25.1c-0.2-0.4-0.7-0.6-1.3-0.5L81.7,25c-0.5,0.1-0.8,0.6-0.7,1v0
	c0.2,0.4,0.7,0.6,1.3,0.5l1.9-0.4C84.7,25.9,85,25.5,84.9,25.1z"/>
<path id="XMLID_435_" class="st0" d="M85,20.8L85,20.8c0.2-0.4-0.2-0.8-0.7-1l-1.9-0.4c-0.5-0.1-1.1,0.1-1.3,0.5v0
	c-0.2,0.4,0.2,0.8,0.7,1l1.9,0.4C84.2,21.4,84.8,21.2,85,20.8z"/>
<path id="XMLID_434_" class="st0" d="M88.2,17.5L88.2,17.5c0.5-0.2,0.6-0.7,0.2-1.1l-1.2-1.2c-0.3-0.3-1-0.4-1.4-0.2v0
	c-0.5,0.2-0.6,0.7-0.2,1.1l1.2,1.2C87.1,17.7,87.7,17.7,88.2,17.5z"/>
<path id="XMLID_433_" class="st0" d="M93.4,16.2L93.4,16.2c0.6,0,1-0.3,1-0.7l0.1-1.5c0-0.4-0.4-0.8-1-0.8l0,0c-0.6,0-1,0.3-1,0.7
	l-0.1,1.5C92.4,15.8,92.8,16.2,93.4,16.2z"/>
<path id="XMLID_432_" class="st0" d="M98.7,17.4L98.7,17.4c0.4,0.3,1.1,0.2,1.4-0.1l1.2-1.2c0.3-0.3,0.3-0.8-0.2-1.1v0
	c-0.4-0.3-1.1-0.2-1.4,0.1l-1.2,1.2C98.2,16.6,98.3,17.1,98.7,17.4z"/>
<path id="XMLID_431_" class="st0" d="M102.1,20.9L102.1,20.9c0.2,0.4,0.8,0.6,1.3,0.5l1.9-0.5c0.5-0.1,0.8-0.6,0.6-1v0
	c-0.2-0.4-0.8-0.6-1.3-0.5l-1.9,0.5C102.2,20,101.9,20.5,102.1,20.9z"/>
<path id="XMLID_430_" class="st0" d="M102.1,25L102.1,25c-0.2,0.4,0.1,0.8,0.6,1l1.9,0.5c0.5,0.1,1.1-0.1,1.3-0.5v0
	c0.2-0.4-0.1-0.8-0.6-1l-1.9-0.5C102.9,24.4,102.3,24.6,102.1,25z"/>
<path id="XMLID_429_" class="st0" d="M98.8,28.5L98.8,28.5c-0.4,0.2-0.5,0.7-0.2,1.1l1.2,1.2c0.3,0.3,1,0.4,1.4,0.2l0,0
	c0.4-0.2,0.5-0.7,0.2-1.1l-1.2-1.2C99.9,28.3,99.2,28.2,98.8,28.5z"/>
<path id="XMLID_428_" class="st0" d="M90.1,30.8h0.2h6.6l0-1.9c0,0,1.6-1.6,2.1-2.2c0.7-0.7,1.5-1,1.7-3.4c0.3-2.4-0.7-5.3-6.7-5.9
	c0,0-6.8-0.6-7.8,5.2c0,0-0.2,3.8,3.9,6"/>
</svg>
